<svg xmlns="http://www.w3.org/2000/svg" viewBox="0 0 1400 640" preserveAspectRatio="xMidYMid slice">
  <defs>
    <linearGradient id="heroBg" x1="0" y1="0" x2="1" y2="1">
      <stop offset="0%" stop-color="#0f1018"/>
      <stop offset="55%" stop-color="#090a11"/>
      <stop offset="100%" stop-color="#05060a"/>
    </linearGradient>
    <linearGradient id="accent" x1="0" y1="0" x2="1" y2="0">
      <stop offset="0%" stop-color="#ff2b43" stop-opacity="0.85"/>
      <stop offset="100%" stop-color="#d01b2f" stop-opacity="0.1"/>
    </linearGradient>
  </defs>
  <rect width="1400" height="640" fill="url(#heroBg)"/>
  <circle cx="250" cy="210" r="190" fill="#ff2b43" fill-opacity="0.08"/>
  <circle cx="1120" cy="460" r="230" fill="#ff2b43" fill-opacity="0.08"/>
  <path d="M0 520 C 220 420, 420 610, 660 520 C 860 445, 1020 550, 1400 460 L 1400 640 L 0 640 Z" fill="#0d0e16"/>
  <g fill="none" stroke="url(#accent)">
    <path d="M-40 260 C 250 130, 480 240, 720 180 C 980 118, 1130 230, 1450 120" stroke-width="2.5"/>
    <path d="M-50 310 C 220 180, 470 280, 690 230 C 940 170, 1160 270, 1450 180" stroke-width="1.8"/>
    <path d="M-80 360 C 200 250, 470 335, 720 290 C 980 235, 1180 330, 1460 255" stroke-width="1.3"/>
  </g>
  <text x="90" y="130" fill="#f6f7ff" font-size="56" font-family="Segoe UI,Arial,sans-serif" font-weight="700" letter-spacing="2">YUMMYANIME</text>
  <text x="90" y="185" fill="#ff5c70" font-size="24" font-family="Segoe UI,Arial,sans-serif" letter-spacing="3">ANIME CATALOG</text>
</svg>
